<?xml version="1.0" standalone="no"?>
<!DOCTYPE svg PUBLIC "-//W3C//DTD SVG 20010904//EN"
 "http://www.w3.org/TR/2001/REC-SVG-20010904/DTD/svg10.dtd">
<svg version="1.0" xmlns="http://www.w3.org/2000/svg"
 width="225.000000pt" height="225.000000pt" viewBox="0 0 225.000000 225.000000"
 preserveAspectRatio="xMidYMid meet">

<g transform="translate(0.000000,225.000000) scale(0.100000,-0.100000)"
fill="#000000" stroke="none">
<path d="M560 1935 c0 -33 -2 -35 -35 -35 -33 0 -35 -2 -35 -35 0 -33 -2 -35
-35 -35 -33 0 -35 -2 -35 -35 0 -33 -2 -35 -35 -35 l-35 0 0 -105 0 -105 -35
0 -35 0 0 -280 0 -280 35 0 35 0 0 -110 0 -110 35 0 35 0 0 -70 0 -70 34 0
c32 0 35 -3 38 -32 3 -29 7 -33 35 -36 28 -3 32 -7 35 -35 3 -28 7 -32 36 -35
29 -3 32 -6 32 -38 l0 -34 70 0 70 0 0 -35 0 -35 110 0 110 0 0 -35 0 -35 100
0 100 0 0 35 0 34 108 3 107 3 3 33 3 32 70 0 69 0 0 34 c0 32 3 35 33 38 28
3 32 7 35 35 3 28 7 32 35 35 28 3 32 7 35 35 3 28 7 32 35 35 l32 3 3 67 3
67 32 3 32 3 3 108 3 107 34 0 35 0 0 280 0 280 -35 0 -35 0 0 105 0 105 -35
0 c-33 0 -35 2 -35 35 0 33 -2 35 -35 35 -33 0 -35 2 -35 35 0 33 -2 35 -35
35 -33 0 -35 2 -35 35 l0 35 -70 0 -70 0 0 -35 c0 -33 2 -35 35 -35 l35 0 0
-70 0 -70 -69 0 -70 0 -3 33 -3 32 -107 3 -108 3 0 34 0 35 -100 0 -100 0 0
-35 0 -35 -110 0 -110 0 0 -35 0 -35 -70 0 -70 0 0 70 0 70 35 0 c33 0 35 2
35 35 l0 35 -70 0 -70 0 0 -35z m428 -422 c3 -28 7 -32 35 -35 28 -3 32 -7 35
-35 3 -29 7 -33 32 -33 25 0 29 4 32 33 3 28 7 32 36 35 29 3 32 6 32 38 l0
34 180 0 180 0 0 -35 0 -35 70 0 70 0 0 -35 c0 -33 2 -35 35 -35 l35 0 0 -285
0 -285 -35 0 c-33 0 -35 -2 -35 -35 0 -33 -2 -35 -35 -35 -33 0 -35 -2 -35
-35 0 -33 -2 -35 -35 -35 -33 0 -35 -2 -35 -35 0 -33 -2 -35 -35 -35 -33 0
-35 -2 -35 -35 0 -33 -2 -35 -35 -35 -33 0 -35 -2 -35 -35 l0 -35 -320 0 -320
0 0 35 c0 33 -2 35 -35 35 -33 0 -35 2 -35 35 0 33 -2 35 -35 35 -33 0 -35 2
-35 35 0 33 -2 35 -35 35 -33 0 -35 2 -35 35 0 33 -2 35 -35 35 -33 0 -35 2
-35 35 0 33 -2 35 -35 35 l-35 0 0 285 0 285 35 0 c33 0 35 2 35 35 l0 35 70
0 70 0 0 35 0 35 178 -2 177 -3 3 -32z"/>
<path d="M637 1403 c-4 -3 -7 -35 -7 -70 l0 -63 35 0 c34 0 35 -1 35 -40 0
-39 -1 -40 -35 -40 l-35 0 0 -65 0 -65 175 0 175 0 0 134 0 135 -32 3 c-30 3
-33 6 -36 41 l-3 37 -133 0 c-73 0 -136 -3 -139 -7z"/>
<path d="M1200 1341 l0 -70 33 -3 c29 -3 32 -6 32 -38 0 -32 -3 -35 -32 -38
l-33 -3 0 -65 0 -64 175 0 175 0 0 135 0 135 -34 0 c-33 0 -35 2 -38 38 l-3
37 -137 3 -138 3 0 -70z"/>
<path d="M700 950 l0 -30 70 0 70 0 0 30 0 30 -70 0 -70 0 0 -30z"/>
<path d="M1340 950 l0 -30 70 0 70 0 0 30 0 30 -70 0 -70 0 0 -30z"/>
<path d="M632 843 l3 -68 32 -3 c28 -3 32 -7 35 -35 3 -28 7 -32 35 -35 28 -3
32 -7 35 -35 3 -28 7 -32 35 -35 28 -3 32 -7 35 -35 l3 -32 243 -3 242 -2 0
34 c0 33 2 35 38 38 34 3 37 6 40 35 3 28 7 32 35 35 28 3 32 7 35 35 3 28 7
32 35 35 l32 3 3 68 3 67 -36 0 -35 0 0 -70 0 -70 -35 0 c-33 0 -35 -2 -35
-36 0 -35 -1 -35 -37 -32 l-38 3 -3 103 -3 102 -29 0 c-25 0 -29 -4 -32 -32
l-3 -33 -177 -3 -178 -2 0 35 c0 33 -2 35 -35 35 l-35 0 0 -105 0 -105 -35 0
c-33 0 -35 2 -35 35 0 33 -2 35 -35 35 l-35 0 0 70 0 70 -35 0 -36 0 3 -67z
m428 -143 l0 -70 -75 0 -75 0 0 70 0 70 75 0 75 0 0 -70z m210 0 l0 -70 -75 0
-75 0 0 70 0 70 75 0 75 0 0 -70z"/>
</g>
</svg>
